<?xml version="1.0" encoding="UTF-8"?>
<!DOCTYPE svg PUBLIC "-//W3C//DTD SVG 1.1//EN" "http://www.w3.org/Graphics/SVG/1.1/DTD/svg11.dtd">
<svg version="1.1" xmlns="http://www.w3.org/2000/svg" xmlns:xlink="http://www.w3.org/1999/xlink" x="0" y="0" width="32" height="32" viewBox="0, 0, 32, 32">
  <g id="Layer_1" transform="translate(-67.421, -36)">
    <g>
      <g>
        <path d="M83.921,67.5 C75.637,67.5 68.921,60.784 68.921,52.5 C68.921,44.216 75.637,37.5 83.921,37.5 C92.205,37.5 98.921,44.216 98.921,52.5 C98.921,60.784 92.205,67.5 83.921,67.5 z" fill="#FFFFFF"/>
        <path d="M83.921,67.5 C75.637,67.5 68.921,60.784 68.921,52.5 C68.921,44.216 75.637,37.5 83.921,37.5 C92.205,37.5 98.921,44.216 98.921,52.5 C98.921,60.784 92.205,67.5 83.921,67.5 z" fill-opacity="0" stroke="#000000" stroke-width="1"/>
      </g>
      <text transform="matrix(1, 0, 0, 1, 83.421, 52)">
        <tspan x="-11" y="6.5" font-family="AppleColorEmoji" font-size="18" fill="#000000">🎨</tspan>
      </text>
    </g>
  </g>
</svg>
