<?xml version="1.0" encoding="UTF-8"?>
<!DOCTYPE svg PUBLIC "-//W3C//DTD SVG 1.1//EN" "http://www.w3.org/Graphics/SVG/1.1/DTD/svg11.dtd">
<svg version="1.1" xmlns="http://www.w3.org/2000/svg" xmlns:xlink="http://www.w3.org/1999/xlink" x="0" y="0" width="32" height="32" viewBox="0, 0, 32, 32">
  <g id="Layer_1" transform="translate(-67.25, -67.75)">
    <g>
      <g>
        <path d="M83.75,99.25 C75.466,99.25 68.75,92.534 68.75,84.25 C68.75,75.966 75.466,69.25 83.75,69.25 C92.034,69.25 98.75,75.966 98.75,84.25 C98.75,92.534 92.034,99.25 83.75,99.25 z" fill="#FFFFFF"/>
        <path d="M83.75,99.25 C75.466,99.25 68.75,92.534 68.75,84.25 C68.75,75.966 75.466,69.25 83.75,69.25 C92.034,69.25 98.75,75.966 98.75,84.25 C98.75,92.534 92.034,99.25 83.75,99.25 z" fill-opacity="0" stroke="#000000" stroke-width="1"/>
      </g>
      <g>
        <path d="M79.281,91.127 L78.929,86.542 L76.519,82.626 L80.771,80.875 L83.75,77.373 L86.729,80.875 L90.981,82.626 L88.571,86.542 L88.219,91.127 L83.75,90.045 z" fill="#000000"/>
        <path d="M79.281,91.127 L78.929,86.542 L76.519,82.626 L80.771,80.875 L83.75,77.373 L86.729,80.875 L90.981,82.626 L88.571,86.542 L88.219,91.127 L83.75,90.045 z" fill-opacity="0" stroke="#000000" stroke-width="1"/>
      </g>
    </g>
  </g>
</svg>
