<?xml version="1.0" encoding="UTF-8"?>
<!DOCTYPE svg PUBLIC "-//W3C//DTD SVG 1.1//EN" "http://www.w3.org/Graphics/SVG/1.1/DTD/svg11.dtd">
<svg version="1.1" xmlns="http://www.w3.org/2000/svg" xmlns:xlink="http://www.w3.org/1999/xlink" x="0" y="0" width="32" height="32" viewBox="0, 0, 32, 32">
  <g id="Layer_1" transform="translate(-34, -34)">
    <g>
      <g>
        <path d="M50.5,65.5 C42.216,65.5 35.5,58.784 35.5,50.5 C35.5,42.216 42.216,35.5 50.5,35.5 C58.784,35.5 65.5,42.216 65.5,50.5 C65.5,58.784 58.784,65.5 50.5,65.5 z" fill="#FFFFFF"/>
        <path d="M50.5,65.5 C42.216,65.5 35.5,58.784 35.5,50.5 C35.5,42.216 42.216,35.5 50.5,35.5 C58.784,35.5 65.5,42.216 65.5,50.5 C65.5,58.784 58.784,65.5 50.5,65.5 z" fill-opacity="0" stroke="#000000" stroke-width="1"/>
      </g>
      <text transform="matrix(1, 0, 0, 1, 50, 50)">
        <tspan x="-11" y="6.5" font-family="AppleColorEmoji" font-size="18" fill="#000000">🎭</tspan>
      </text>
    </g>
  </g>
</svg>
