<?xml version="1.0" encoding="UTF-8"?>
<!DOCTYPE svg PUBLIC "-//W3C//DTD SVG 1.1//EN" "http://www.w3.org/Graphics/SVG/1.1/DTD/svg11.dtd">
<svg version="1.1" xmlns="http://www.w3.org/2000/svg" xmlns:xlink="http://www.w3.org/1999/xlink" x="0" y="0" width="32" height="32" viewBox="0, 0, 32, 32">
  <g id="Layer_1" transform="translate(-38, 0)">
    <g>
      <g>
        <path d="M54.5,31.5 C46.216,31.5 39.5,24.784 39.5,16.5 C39.5,8.216 46.216,1.5 54.5,1.5 C62.784,1.5 69.5,8.216 69.5,16.5 C69.5,24.784 62.784,31.5 54.5,31.5 z" fill="#FFFFFF"/>
        <path d="M54.5,31.5 C46.216,31.5 39.5,24.784 39.5,16.5 C39.5,8.216 46.216,1.5 54.5,1.5 C62.784,1.5 69.5,8.216 69.5,16.5 C69.5,24.784 62.784,31.5 54.5,31.5 z" fill-opacity="0" stroke="#000000" stroke-width="1"/>
      </g>
      <g>
        <g>
          <path d="M64.511,16.023 L64.511,16.023 C65.307,16.483 65.58,17.502 65.12,18.298 L63.527,21.058 C63.067,21.855 62.048,22.128 61.252,21.668 L61.252,21.668 C60.456,21.208 60.183,20.19 60.643,19.393 L62.236,16.633 C62.696,15.836 63.714,15.564 64.511,16.023 z" fill="#FFFFFF"/>
          <path d="M64.511,16.023 L64.511,16.023 C65.307,16.483 65.58,17.502 65.12,18.298 L63.527,21.058 C63.067,21.855 62.048,22.128 61.252,21.668 L61.252,21.668 C60.456,21.208 60.183,20.19 60.643,19.393 L62.236,16.633 C62.696,15.836 63.714,15.564 64.511,16.023 z" fill-opacity="0" stroke="#000000" stroke-width="1"/>
        </g>
        <g>
          <path d="M62.77,14.405 L62.792,14.835 C62.792,19.502 59.008,23.286 54.34,23.286 C49.673,23.286 45.889,19.502 45.889,14.835 L45.911,14.405 L62.77,14.405 z" fill="#FFFFFF"/>
          <path d="M62.77,14.405 L62.792,14.835 C62.792,19.502 59.008,23.286 54.34,23.286 C49.673,23.286 45.889,19.502 45.889,14.835 L45.911,14.405 L62.77,14.405 z" fill-opacity="0" stroke="#000000" stroke-width="1"/>
        </g>
        <g>
          <path d="M45.656,23.286 L63.025,23.286 L60.368,25.292 L47.827,25.292 L45.656,23.286 z" fill="#FFFFFF"/>
          <path d="M45.656,23.286 L63.025,23.286 L60.368,25.292 L47.827,25.292 L45.656,23.286 z" fill-opacity="0" stroke="#000000" stroke-width="1" stroke-linejoin="round"/>
        </g>
        <path d="M50.903,7.708" fill-opacity="0" stroke="#000000" stroke-width="1"/>
        <path d="M50.997,7.95 C50.997,7.95 52.122,9.212 52.122,9.212 C52.122,9.212 51.021,10.287 51.091,10.287 C51.161,10.287 52.122,11.361 52.122,11.361 C52.122,11.361 50.9,12.61 51.077,12.61" fill-opacity="0" stroke="#000000" stroke-width="1" stroke-linecap="round" stroke-linejoin="round"/>
        <path d="M58.638,16.303" fill-opacity="0" stroke="#000000" stroke-width="1"/>
        <path d="M53.575,7.95 C53.575,7.95 54.7,9.212 54.7,9.212 C54.7,9.212 53.599,10.287 53.669,10.287 C53.739,10.287 54.7,11.361 54.7,11.361 C54.7,11.361 53.478,12.61 53.656,12.61" fill-opacity="0" stroke="#000000" stroke-width="1" stroke-linecap="round" stroke-linejoin="round"/>
        <path d="M55.819,7.95 C55.819,7.95 56.944,9.212 56.944,9.212 C56.944,9.212 55.843,10.287 55.913,10.287 C55.983,10.287 56.944,11.361 56.944,11.361 C56.944,11.361 55.722,12.61 55.9,12.61" fill-opacity="0" stroke="#000000" stroke-width="1" stroke-linecap="round" stroke-linejoin="round"/>
      </g>
    </g>
  </g>
</svg>
