<?xml version="1.0" encoding="UTF-8"?>
<!DOCTYPE svg PUBLIC "-//W3C//DTD SVG 1.1//EN" "http://www.w3.org/Graphics/SVG/1.1/DTD/svg11.dtd">
<svg version="1.1" xmlns="http://www.w3.org/2000/svg" xmlns:xlink="http://www.w3.org/1999/xlink" x="0" y="0" width="32" height="32" viewBox="0, 0, 32, 32">
  <g id="Layer_1" transform="translate(-34, 0)">
    <g>
      <g>
        <path d="M50.5,31.5 C42.216,31.5 35.5,24.784 35.5,16.5 C35.5,8.216 42.216,1.5 50.5,1.5 C58.784,1.5 65.5,8.216 65.5,16.5 C65.5,24.784 58.784,31.5 50.5,31.5 z" fill="#FFFFFF"/>
        <path d="M50.5,31.5 C42.216,31.5 35.5,24.784 35.5,16.5 C35.5,8.216 42.216,1.5 50.5,1.5 C58.784,1.5 65.5,8.216 65.5,16.5 C65.5,24.784 58.784,31.5 50.5,31.5 z" fill-opacity="0" stroke="#000000" stroke-width="1"/>
      </g>
      <text transform="matrix(1, 0, 0, 1, 49.75, 16.875)">
        <tspan x="-10.75" y="6.125" font-family="AppleColorEmoji" font-size="18" fill="#000000">🥖</tspan>
      </text>
    </g>
  </g>
</svg>
