<?xml version="1.0" encoding="UTF-8"?>
<!DOCTYPE svg PUBLIC "-//W3C//DTD SVG 1.1//EN" "http://www.w3.org/Graphics/SVG/1.1/DTD/svg11.dtd">
<svg version="1.1" xmlns="http://www.w3.org/2000/svg" xmlns:xlink="http://www.w3.org/1999/xlink" x="0" y="0" width="32" height="32" viewBox="0, 0, 32, 32">
  <g id="Layer_1" transform="translate(-66.838, -67.5)">
    <g>
      <g>
        <path d="M83.338,99 C75.053,99 68.338,92.284 68.338,84 C68.338,75.716 75.053,69 83.338,69 C91.622,69 98.338,75.716 98.338,84 C98.338,92.284 91.622,99 83.338,99 z" fill="#FFFFFF"/>
        <path d="M83.338,99 C75.053,99 68.338,92.284 68.338,84 C68.338,75.716 75.053,69 83.338,69 C91.622,69 98.338,75.716 98.338,84 C98.338,92.284 91.622,99 83.338,99 z" fill-opacity="0" stroke="#000000" stroke-width="1"/>
      </g>
      <g>
        <path d="M89.822,81.982 L89.822,81.982 C91.304,81.982 92.506,82.977 92.506,84.205 L92.506,89.195 C92.506,90.423 91.304,91.418 89.822,91.418 L89.822,91.418 C88.34,91.418 87.138,90.423 87.138,89.195 L87.138,84.205 C87.138,82.977 88.34,81.982 89.822,81.982 z" fill="#FFFFFF"/>
        <path d="M89.822,81.982 L89.822,81.982 C91.304,81.982 92.506,82.977 92.506,84.205 L92.506,89.195 C92.506,90.423 91.304,91.418 89.822,91.418 L89.822,91.418 C88.34,91.418 87.138,90.423 87.138,89.195 L87.138,84.205 C87.138,82.977 88.34,81.982 89.822,81.982 z" fill-opacity="0" stroke="#000000" stroke-width="1"/>
      </g>
      <g>
        <path d="M85.861,74.438 C86.628,74.438 87.25,74.93 87.25,75.538 C87.233,75.999 87.03,76.142 86.678,76.372 C87.769,76.684 88.319,77.631 88.441,78.696 C88.441,80.13 87.116,81.294 85.482,81.294 C84.485,81.275 84.035,81.032 83.319,80.404 C83.112,80.48 83.307,80.41 82.703,80.464 C82.02,80.456 81.335,80.271 80.815,79.814 C80.186,80.224 80.526,80.095 79.798,80.211 C79.031,80.211 78.409,79.718 78.409,79.11 C78.467,78.335 79.096,78.122 79.762,78.016 L79.744,77.866 C79.744,76.431 81.069,75.267 82.703,75.267 C83.377,75.278 84.061,75.451 84.575,75.902 C84.465,75.694 84.506,75.813 84.471,75.538 C84.471,74.93 85.093,74.438 85.861,74.438 z" fill="#FFFFFF"/>
        <path d="M85.861,74.438 C86.628,74.438 87.25,74.93 87.25,75.538 C87.233,75.999 87.03,76.142 86.678,76.372 C87.769,76.684 88.319,77.631 88.441,78.696 C88.441,80.13 87.116,81.294 85.482,81.294 C84.485,81.275 84.035,81.032 83.319,80.404 C83.112,80.48 83.307,80.41 82.703,80.464 C82.02,80.456 81.335,80.271 80.815,79.814 C80.186,80.224 80.526,80.095 79.798,80.211 C79.031,80.211 78.409,79.718 78.409,79.11 C78.467,78.335 79.096,78.122 79.762,78.016 L79.744,77.866 C79.744,76.431 81.069,75.267 82.703,75.267 C83.377,75.278 84.061,75.451 84.575,75.902 C84.465,75.694 84.506,75.813 84.471,75.538 C84.471,74.93 85.093,74.438 85.861,74.438 z" fill-opacity="0" stroke="#000000" stroke-width="1"/>
      </g>
      <g>
        <path d="M80.19,79.821 L86.938,79.778 C88.851,79.778 88.677,79.987 88.677,81.9 L88.677,91.614 C88.677,93.527 87.126,93.562 85.213,93.562 L81.633,93.562 C79.72,93.562 78.169,93.527 78.169,91.614 L78.169,81.553 C78.169,79.64 78.277,79.821 80.19,79.821 z" fill="#FFFFFF"/>
        <path d="M80.19,79.821 L86.938,79.778 C88.851,79.778 88.677,79.987 88.677,81.9 L88.677,91.614 C88.677,93.527 87.126,93.562 85.213,93.562 L81.633,93.562 C79.72,93.562 78.169,93.527 78.169,91.614 L78.169,81.553 C78.169,79.64 78.277,79.821 80.19,79.821 z" fill-opacity="0" stroke="#000000" stroke-width="1"/>
      </g>
      <g>
        <path d="M81.178,85.912 L85.769,81.321" fill-opacity="0" stroke="#000000" stroke-width="1"/>
        <path d="M80.966,88.973 L85.557,84.382" fill-opacity="0" stroke="#000000" stroke-width="1"/>
        <path d="M80.966,91.864 L85.557,87.273" fill-opacity="0" stroke="#000000" stroke-width="1"/>
      </g>
    </g>
    <g>
      <path d="M73.125,87.625 C71.123,87.625 69.5,86.002 69.5,84 C69.5,81.998 71.123,80.375 73.125,80.375 C75.127,80.375 76.75,81.998 76.75,84 C76.75,86.002 75.127,87.625 73.125,87.625 z" fill="#EE0000"/>
      <path d="M73.125,87.625 C71.123,87.625 69.5,86.002 69.5,84 C69.5,81.998 71.123,80.375 73.125,80.375 C75.127,80.375 76.75,81.998 76.75,84 C76.75,86.002 75.127,87.625 73.125,87.625 z" fill-opacity="0" stroke="#EE0000" stroke-width="1"/>
    </g>
  </g>
</svg>
