<?xml version="1.0" encoding="UTF-8"?>
<!DOCTYPE svg PUBLIC "-//W3C//DTD SVG 1.1//EN" "http://www.w3.org/Graphics/SVG/1.1/DTD/svg11.dtd">
<svg version="1.1" xmlns="http://www.w3.org/2000/svg" xmlns:xlink="http://www.w3.org/1999/xlink" x="0" y="0" width="32" height="32" viewBox="0, 0, 32, 32">
  <g id="Layer_1" transform="translate(0, 0)">
    <g>
      <g>
        <path d="M16.5,31.5 C8.216,31.5 1.5,24.784 1.5,16.5 C1.5,8.216 8.216,1.5 16.5,1.5 C24.784,1.5 31.5,8.216 31.5,16.5 C31.5,24.784 24.784,31.5 16.5,31.5 z" fill="#FFFFFF"/>
        <path d="M16.5,31.5 C8.216,31.5 1.5,24.784 1.5,16.5 C1.5,8.216 8.216,1.5 16.5,1.5 C24.784,1.5 31.5,8.216 31.5,16.5 C31.5,24.784 24.784,31.5 16.5,31.5 z" fill-opacity="0" stroke="#000000" stroke-width="1"/>
      </g>
      <g>
        <path d="M22.985,14.482 L22.985,14.482 C24.467,14.482 25.669,15.477 25.669,16.705 L25.669,21.695 C25.669,22.923 24.467,23.918 22.985,23.918 L22.985,23.918 C21.502,23.918 20.301,22.923 20.301,21.695 L20.301,16.705 C20.301,15.477 21.502,14.482 22.985,14.482 z" fill="#FFFFFF"/>
        <path d="M22.985,14.482 L22.985,14.482 C24.467,14.482 25.669,15.477 25.669,16.705 L25.669,21.695 C25.669,22.923 24.467,23.918 22.985,23.918 L22.985,23.918 C21.502,23.918 20.301,22.923 20.301,21.695 L20.301,16.705 C20.301,15.477 21.502,14.482 22.985,14.482 z" fill-opacity="0" stroke="#000000" stroke-width="1"/>
      </g>
      <g>
        <path d="M19.023,6.937 C19.791,6.937 20.413,7.43 20.413,8.038 C20.396,8.499 20.192,8.642 19.84,8.872 C20.931,9.184 21.481,10.131 21.603,11.196 C21.603,12.63 20.279,13.794 18.644,13.794 C17.647,13.775 17.198,13.532 16.482,12.904 C16.275,12.98 16.469,12.91 15.866,12.964 C15.183,12.956 14.497,12.771 13.977,12.314 C13.349,12.724 13.689,12.595 12.961,12.711 C12.194,12.711 11.572,12.218 11.572,11.61 C11.63,10.835 12.258,10.622 12.924,10.516 L12.907,10.366 C12.907,8.931 14.232,7.767 15.866,7.767 C16.539,7.778 17.224,7.951 17.738,8.402 C17.627,8.194 17.669,8.313 17.634,8.038 C17.634,7.43 18.256,6.937 19.023,6.937 z" fill="#FFFFFF"/>
        <path d="M19.023,6.937 C19.791,6.937 20.413,7.43 20.413,8.038 C20.396,8.499 20.192,8.642 19.84,8.872 C20.931,9.184 21.481,10.131 21.603,11.196 C21.603,12.63 20.279,13.794 18.644,13.794 C17.647,13.775 17.198,13.532 16.482,12.904 C16.275,12.98 16.469,12.91 15.866,12.964 C15.183,12.956 14.497,12.771 13.977,12.314 C13.349,12.724 13.689,12.595 12.961,12.711 C12.194,12.711 11.572,12.218 11.572,11.61 C11.63,10.835 12.258,10.622 12.924,10.516 L12.907,10.366 C12.907,8.931 14.232,7.767 15.866,7.767 C16.539,7.778 17.224,7.951 17.738,8.402 C17.627,8.194 17.669,8.313 17.634,8.038 C17.634,7.43 18.256,6.937 19.023,6.937 z" fill-opacity="0" stroke="#000000" stroke-width="1"/>
      </g>
      <g>
        <path d="M13.352,12.321 L20.1,12.278 C22.013,12.278 21.839,12.487 21.839,14.4 L21.839,24.114 C21.839,26.027 20.288,26.063 18.375,26.063 L14.796,26.063 C12.882,26.063 11.331,26.027 11.331,24.114 L11.331,14.053 C11.331,12.14 11.439,12.321 13.352,12.321 z" fill="#FFFFFF"/>
        <path d="M13.352,12.321 L20.1,12.278 C22.013,12.278 21.839,12.487 21.839,14.4 L21.839,24.114 C21.839,26.027 20.288,26.063 18.375,26.063 L14.796,26.063 C12.882,26.063 11.331,26.027 11.331,24.114 L11.331,14.053 C11.331,12.14 11.439,12.321 13.352,12.321 z" fill-opacity="0" stroke="#000000" stroke-width="1"/>
      </g>
      <g>
        <path d="M14.34,18.412 L18.932,13.821" fill-opacity="0" stroke="#000000" stroke-width="1"/>
        <path d="M14.129,21.473 L18.72,16.882" fill-opacity="0" stroke="#000000" stroke-width="1"/>
        <path d="M14.129,24.364 L18.72,19.773" fill-opacity="0" stroke="#000000" stroke-width="1"/>
      </g>
    </g>
  </g>
</svg>
