<?xml version="1.0" encoding="UTF-8"?>
<!DOCTYPE svg PUBLIC "-//W3C//DTD SVG 1.1//EN" "http://www.w3.org/Graphics/SVG/1.1/DTD/svg11.dtd">
<svg version="1.1" xmlns="http://www.w3.org/2000/svg" xmlns:xlink="http://www.w3.org/1999/xlink" x="0" y="0" width="32" height="32" viewBox="0, 0, 32, 32">
  <g id="Layer_1" transform="translate(-0.5, -67.5)">
    <g>
      <g>
        <path d="M17,99 C8.716,99 2,92.284 2,84 C2,75.716 8.716,69 17,69 C25.284,69 32,75.716 32,84 C32,92.284 25.284,99 17,99 z" fill="#FFFFFF"/>
        <path d="M17,99 C8.716,99 2,92.284 2,84 C2,75.716 8.716,69 17,69 C25.284,69 32,75.716 32,84 C32,92.284 25.284,99 17,99 z" fill-opacity="0" stroke="#000000" stroke-width="1"/>
      </g>
      <text transform="matrix(1, 0, 0, 1, 16.5, 83.5)">
        <tspan x="-11" y="6.5" font-family="AppleColorEmoji" font-size="18" fill="#000000">🍷</tspan>
      </text>
    </g>
  </g>
</svg>
