<?xml version="1.0" encoding="UTF-8"?>
<!DOCTYPE svg PUBLIC "-//W3C//DTD SVG 1.1//EN" "http://www.w3.org/Graphics/SVG/1.1/DTD/svg11.dtd">
<svg version="1.1" xmlns="http://www.w3.org/2000/svg" xmlns:xlink="http://www.w3.org/1999/xlink" x="0" y="0" width="32" height="32" viewBox="0, 0, 32, 32">
  <g id="Layer_1" transform="translate(-0.5, -34)">
    <g>
      <g>
        <path d="M17,65.5 C8.716,65.5 2,58.784 2,50.5 C2,42.216 8.716,35.5 17,35.5 C25.284,35.5 32,42.216 32,50.5 C32,58.784 25.284,65.5 17,65.5 z" fill="#FFFFFF"/>
        <path d="M17,65.5 C8.716,65.5 2,58.784 2,50.5 C2,42.216 8.716,35.5 17,35.5 C25.284,35.5 32,42.216 32,50.5 C32,58.784 25.284,65.5 17,65.5 z" fill-opacity="0" stroke="#000000" stroke-width="1"/>
      </g>
      <text transform="matrix(1, 0, 0, 1, 16.5, 50)">
        <tspan x="-11" y="6.5" font-family="AppleColorEmoji" font-size="18" fill="#000000">🥘</tspan>
      </text>
    </g>
  </g>
</svg>
