<?xml version="1.0" encoding="UTF-8"?>
<!DOCTYPE svg PUBLIC "-//W3C//DTD SVG 1.1//EN" "http://www.w3.org/Graphics/SVG/1.1/DTD/svg11.dtd">
<svg version="1.1" xmlns="http://www.w3.org/2000/svg" xmlns:xlink="http://www.w3.org/1999/xlink" x="0" y="0" width="32" height="32" viewBox="0, 0, 32, 32">
  <g id="Layer_1" transform="translate(-0.087, -35.875)">
    <g>
      <g>
        <path d="M16.587,67.375 C8.303,67.375 1.587,60.659 1.587,52.375 C1.587,44.091 8.303,37.375 16.587,37.375 C24.872,37.375 31.587,44.091 31.587,52.375 C31.587,60.659 24.872,67.375 16.587,67.375 z" fill="#FFFFFF"/>
        <path d="M16.587,67.375 C8.303,67.375 1.587,60.659 1.587,52.375 C1.587,44.091 8.303,37.375 16.587,37.375 C24.872,37.375 31.587,44.091 31.587,52.375 C31.587,60.659 24.872,67.375 16.587,67.375 z" fill-opacity="0" stroke="#000000" stroke-width="1"/>
      </g>
      <g>
        <path d="M14.577,48.47 C14.577,49.108 13.998,49.787 13.245,49.787 L13.245,60.542 C13.245,62.067 11.163,62.067 11.163,60.542 L11.163,49.787 C10.431,49.787 9.793,49.222 9.793,48.375 L9.793,42.457 C9.793,41.941 10.538,41.919 10.538,42.476 L10.538,46.852 L11.162,46.852 L11.88,46.852 L11.824,46.852 L11.824,42.442 C11.824,41.948 12.521,41.929 12.521,42.461 L12.521,46.852 L13.852,46.852 L13.852,42.442 C13.852,41.955 14.578,41.936 14.578,42.461 L14.578,48.47 z" fill="#000000"/>
        <path d="M21.103,43.831 L21.103,60.534 C21.103,62.027 19.017,62.005 19.017,60.534 L19.017,53.91 L17.905,53.91 L17.905,43.831 C17.905,41.488 21.103,41.488 21.103,43.831" fill="#000000"/>
      </g>
    </g>
  </g>
</svg>
