<?xml version="1.0" encoding="UTF-8"?>
<!DOCTYPE svg PUBLIC "-//W3C//DTD SVG 1.1//EN" "http://www.w3.org/Graphics/SVG/1.1/DTD/svg11.dtd">
<svg version="1.1" xmlns="http://www.w3.org/2000/svg" xmlns:xlink="http://www.w3.org/1999/xlink" x="0" y="0" width="32" height="32" viewBox="0, 0, 32, 32">
  <g id="Layer_1" transform="translate(-28.925, -67.5)">
    <g>
      <g>
        <path d="M45.425,99 C37.141,99 30.425,92.284 30.425,84 C30.425,75.716 37.141,69 45.425,69 C53.709,69 60.425,75.716 60.425,84 C60.425,92.284 53.709,99 45.425,99 z" fill="#FFFFFF"/>
        <path d="M45.425,99 C37.141,99 30.425,92.284 30.425,84 C30.425,75.716 37.141,69 45.425,69 C53.709,69 60.425,75.716 60.425,84 C60.425,92.284 53.709,99 45.425,99 z" fill-opacity="0" stroke="#000000" stroke-width="1"/>
      </g>
      <g>
        <path d="M43.414,80.095 C43.414,80.733 42.836,81.412 42.083,81.412 L42.083,92.167 C42.083,93.692 40.001,93.692 40.001,92.167 L40.001,81.412 C39.268,81.412 38.63,80.847 38.63,80 L38.63,74.082 C38.63,73.566 39.376,73.544 39.376,74.101 L39.376,78.477 L39.999,78.477 L40.717,78.477 L40.661,78.477 L40.661,74.067 C40.661,73.573 41.358,73.554 41.358,74.086 L41.358,78.477 L42.69,78.477 L42.69,74.067 C42.69,73.58 43.416,73.561 43.416,74.086 L43.416,80.095 z" fill="#000000"/>
        <path d="M49.941,75.456 L49.941,92.159 C49.941,93.652 47.854,93.63 47.854,92.159 L47.854,85.535 L46.742,85.535 L46.742,75.456 C46.742,73.113 49.941,73.113 49.941,75.456" fill="#000000"/>
      </g>
    </g>
    <g>
      <path d="M35.212,87.625 C33.21,87.625 31.587,86.002 31.587,84 C31.587,81.998 33.21,80.375 35.212,80.375 C37.215,80.375 38.837,81.998 38.837,84 C38.837,86.002 37.215,87.625 35.212,87.625 z" fill="#EE0000"/>
      <path d="M35.212,87.625 C33.21,87.625 31.587,86.002 31.587,84 C31.587,81.998 33.21,80.375 35.212,80.375 C37.215,80.375 38.837,81.998 38.837,84 C38.837,86.002 37.215,87.625 35.212,87.625 z" fill-opacity="0" stroke="#EE0000" stroke-width="1"/>
    </g>
  </g>
</svg>
