<?xml version="1.0" encoding="UTF-8"?>
<!DOCTYPE svg PUBLIC "-//W3C//DTD SVG 1.1//EN" "http://www.w3.org/Graphics/SVG/1.1/DTD/svg11.dtd">
<svg version="1.1" xmlns="http://www.w3.org/2000/svg" xmlns:xlink="http://www.w3.org/1999/xlink" x="0" y="0" width="32" height="32" viewBox="0, 0, 32, 32">
  <g id="Layer_1" transform="translate(-66.838, -31.875)">
    <g>
      <g>
        <g>
          <path d="M83.338,63.375 C75.053,63.375 68.338,56.659 68.338,48.375 C68.338,40.091 75.053,33.375 83.338,33.375 C91.622,33.375 98.338,40.091 98.338,48.375 C98.338,56.659 91.622,63.375 83.338,63.375 z" fill="#FFFFFF"/>
          <path d="M83.338,63.375 C75.053,63.375 68.338,56.659 68.338,48.375 C68.338,40.091 75.053,33.375 83.338,33.375 C91.622,33.375 98.338,40.091 98.338,48.375 C98.338,56.659 91.622,63.375 83.338,63.375 z" fill-opacity="0" stroke="#000000" stroke-width="1"/>
        </g>
        <g>
          <g>
            <path d="M93.348,47.898 L93.348,47.898 C94.145,48.358 94.418,49.377 93.958,50.173 L92.364,52.933 C91.904,53.73 90.886,54.003 90.09,53.543 L90.09,53.543 C89.293,53.083 89.02,52.065 89.48,51.268 L91.074,48.508 C91.533,47.711 92.552,47.439 93.348,47.898 z" fill="#FFFFFF"/>
            <path d="M93.348,47.898 L93.348,47.898 C94.145,48.358 94.418,49.377 93.958,50.173 L92.364,52.933 C91.904,53.73 90.886,54.003 90.09,53.543 L90.09,53.543 C89.293,53.083 89.02,52.065 89.48,51.268 L91.074,48.508 C91.533,47.711 92.552,47.439 93.348,47.898 z" fill-opacity="0" stroke="#000000" stroke-width="1"/>
          </g>
          <g>
            <path d="M91.608,46.28 L91.629,46.71 C91.629,51.377 87.846,55.161 83.178,55.161 C78.51,55.161 74.727,51.377 74.727,46.71 L74.748,46.28 L91.608,46.28 z" fill="#FFFFFF"/>
            <path d="M91.608,46.28 L91.629,46.71 C91.629,51.377 87.846,55.161 83.178,55.161 C78.51,55.161 74.727,51.377 74.727,46.71 L74.748,46.28 L91.608,46.28 z" fill-opacity="0" stroke="#000000" stroke-width="1"/>
          </g>
          <g>
            <path d="M74.494,55.161 L91.862,55.161 L89.206,57.167 L76.665,57.167 L74.494,55.161 z" fill="#FFFFFF"/>
            <path d="M74.494,55.161 L91.862,55.161 L89.206,57.167 L76.665,57.167 L74.494,55.161 z" fill-opacity="0" stroke="#000000" stroke-width="1" stroke-linejoin="round"/>
          </g>
          <path d="M79.834,39.825 C79.834,39.825 80.959,41.087 80.959,41.087 C80.959,41.087 79.858,42.162 79.928,42.162 C79.998,42.162 80.959,43.236 80.959,43.236 C80.959,43.236 79.737,44.485 79.915,44.485" fill-opacity="0" stroke="#000000" stroke-width="1" stroke-linecap="round" stroke-linejoin="round"/>
          <path d="M82.412,39.825 C82.412,39.825 83.538,41.087 83.538,41.087 C83.538,41.087 82.436,42.162 82.507,42.162 C82.577,42.162 83.538,43.236 83.538,43.236 C83.538,43.236 82.316,44.485 82.493,44.485" fill-opacity="0" stroke="#000000" stroke-width="1" stroke-linecap="round" stroke-linejoin="round"/>
          <path d="M84.657,39.825 C84.657,39.825 85.782,41.087 85.782,41.087 C85.782,41.087 84.681,42.162 84.751,42.162 C84.821,42.162 85.782,43.236 85.782,43.236 C85.782,43.236 84.56,44.485 84.737,44.485" fill-opacity="0" stroke="#000000" stroke-width="1" stroke-linecap="round" stroke-linejoin="round"/>
        </g>
      </g>
      <g>
        <path d="M73.125,52 C71.123,52 69.5,50.377 69.5,48.375 C69.5,46.373 71.123,44.75 73.125,44.75 C75.127,44.75 76.75,46.373 76.75,48.375 C76.75,50.377 75.127,52 73.125,52 z" fill="#EE0000"/>
        <path d="M73.125,52 C71.123,52 69.5,50.377 69.5,48.375 C69.5,46.373 71.123,44.75 73.125,44.75 C75.127,44.75 76.75,46.373 76.75,48.375 C76.75,50.377 75.127,52 73.125,52 z" fill-opacity="0" stroke="#EE0000" stroke-width="1"/>
      </g>
    </g>
  </g>
</svg>
