<?xml version="1.0" encoding="UTF-8"?>
<!DOCTYPE svg PUBLIC "-//W3C//DTD SVG 1.1//EN" "http://www.w3.org/Graphics/SVG/1.1/DTD/svg11.dtd">
<svg version="1.1" xmlns="http://www.w3.org/2000/svg" xmlns:xlink="http://www.w3.org/1999/xlink" x="0" y="0" width="32" height="32" viewBox="0, 0, 32, 32">
  <g id="Layer_1" transform="translate(-0.5, 0.25)">
    <g>
      <g>
        <path d="M17,31.25 C8.716,31.25 2,24.534 2,16.25 C2,7.966 8.716,1.25 17,1.25 C25.284,1.25 32,7.966 32,16.25 C32,24.534 25.284,31.25 17,31.25 z" fill="#FFFFFF"/>
        <path d="M17,31.25 C8.716,31.25 2,24.534 2,16.25 C2,7.966 8.716,1.25 17,1.25 C25.284,1.25 32,7.966 32,16.25 C32,24.534 25.284,31.25 17,31.25 z" fill-opacity="0" stroke="#000000" stroke-width="1"/>
      </g>
      <text transform="matrix(1, 0, 0, 1, 16.5, 15.75)">
        <tspan x="-11" y="6.5" font-family="AppleColorEmoji" font-size="18" fill="#000000">☕️</tspan>
      </text>
    </g>
  </g>
</svg>
